<?xml version="1.0" encoding="UTF-8"?><svg xmlns="http://www.w3.org/2000/svg" xmlns:xlink="http://www.w3.org/1999/xlink" viewBox="0 0 500 500"><defs><style>.cls-1{fill:#8af48a;}.cls-2{stroke-linejoin:round;stroke-width:4.1px;}.cls-2,.cls-3,.cls-4,.cls-5,.cls-6,.cls-7,.cls-8,.cls-9{fill:none;}.cls-2,.cls-3,.cls-5,.cls-7,.cls-8{stroke:#fff;}.cls-2,.cls-3,.cls-7,.cls-8{stroke-linecap:round;}.cls-10{fill:#6f9efe;}.cls-3{stroke-width:1.41px;}.cls-3,.cls-4,.cls-5,.cls-6,.cls-7,.cls-8,.cls-9{stroke-miterlimit:10;}.cls-11,.cls-12{fill:#fff;}.cls-13{mix-blend-mode:overlay;}.cls-13,.cls-14,.cls-12,.cls-15{opacity:.51;}.cls-14{fill:url(#linear-gradient-2);}.cls-14,.cls-12,.cls-15{mix-blend-mode:lighten;}.cls-16{fill:#59b0ff;}.cls-17{isolation:isolate;}.cls-18{fill:#56b9ff;}.cls-19{fill:#397def;}.cls-20{fill:#224799;}.cls-4{stroke:#3e69f9;}.cls-4,.cls-6{stroke-width:4.42px;}.cls-21{fill:#3b85f7;}.cls-5{stroke-width:2.81px;}.cls-15{fill:url(#linear-gradient);}.cls-22{fill:#72b6ff;}.cls-23{fill:#1b55d4;}.cls-6{stroke:#397def;}.cls-7{stroke-width:1.74px;}.cls-24{fill:#2653e3;}.cls-25{fill:#1cf7b3;}.cls-26{fill:#8dffd6;}.cls-8{stroke-width:.78px;}.cls-27{fill:#90b8f9;}.cls-28{fill:#3e69f9;}.cls-9{stroke:#39fec6;stroke-width:1.88px;}</style><linearGradient id="linear-gradient" x1="238.42" y1="185.26" x2="175.69" y2="247.35" gradientTransform="translate(2.3 -3.72) rotate(.6)" gradientUnits="userSpaceOnUse"><stop offset="0" stop-color="#fff"/><stop offset="1" stop-color="#fff" stop-opacity="0"/></linearGradient><linearGradient id="linear-gradient-2" x1="262.75" y1="209.84" x2="200.02" y2="271.93" xlink:href="#linear-gradient"/></defs><g class="cls-17"><g id="OBJECTS"><polygon class="cls-12" points="291.14 272.89 307.61 256.42 307.61 230.8 265.52 272.89 291.14 272.89"/><path class="cls-27" d="M338.56,270.37h2.22c.56,0,1.02.46,1.02,1.02v26.43c0,.56-.46,1.02-1.02,1.02h-2.23c-.56,0-1.02-.46-1.02-1.02v-26.43c0-.56.46-1.02,1.02-1.02Z" transform="translate(-76.19 131.51) rotate(-19.75)"/><path class="cls-11" d="M356.23,319.12l-14.89,5.35c-1.56.56-3.29-.13-4.03-1.61l-11.05-22.05c-.37-.74-.01-1.63.77-1.91l23.98-8.61c.78-.28,1.62.18,1.81.99l5.5,24.04c.37,1.61-.53,3.25-2.08,3.81Z"/><rect class="cls-11" x="344.24" y="270.97" width="4.27" height="32.5" rx="1" ry="1" transform="translate(-52.88 79.69) rotate(-12.2)"/><path class="cls-23" d="M254.88,282.05l-13.16-.14h-.48s-13.16-.14-13.16-.14c2,13.15-1.21,24.95-8.31,35.74l21.1.22h.48s21.1.23,21.1.23c-6.88-10.93-9.83-22.8-7.56-35.9Z"/><rect class="cls-20" x="212.59" y="310.76" width="57.08" height="8.1" rx="3.56" ry="3.56" transform="translate(3.33 -2.52) rotate(.6)"/><path class="cls-20" d="M317.38,284.97l-150.99-1.59c-4.12-.04-7.43-3.42-7.38-7.54l1.01-95.62c.04-4.12,3.42-7.43,7.54-7.38l150.99,1.59c4.12.04,7.43,3.42,7.38,7.54l-1.01,95.62c-.04,4.12-3.42,7.43-7.54,7.38Z"/><polygon class="cls-18" points="316.29 265.06 167.66 263.49 168.64 181.5 317.28 183.06 316.29 265.06"/><polygon class="cls-16" points="316.29 265.06 167.66 263.49 167.75 259.26 316.39 260.83 316.29 265.06"/><rect class="cls-16" x="168.61" y="182.28" width="148.65" height="4.42" transform="translate(1.96 -2.55) rotate(.6)"/><path class="cls-21" d="M247.07,274.35c-.03,2.82-2.34,5.08-5.16,5.05-2.82-.03-5.08-2.34-5.05-5.16s2.34-5.08,5.16-5.05c2.82.03,5.08,2.34,5.05,5.16Z"/><circle class="cls-11" cx="242.35" cy="221.41" r="28.82"/><path class="cls-19" d="M253.3,214.23l-21.75-.23c-1.17-.01-2.14.93-2.15,2.1l-.23,21.75c-.01,1.17.93,2.14,2.1,2.15l21.75.23c1.17.01,2.14-.93,2.15-2.1l.23-21.75c.01-1.17-.93-2.14-2.1-2.15ZM244.32,226.83l-.04,4.21c-.01,1.12-.93,2.02-2.05,2.01-1.12-.01-2.02-.93-2.01-2.05l.04-4.21c-.81-.63-1.34-1.6-1.32-2.7.02-1.87,1.55-3.36,3.42-3.34,1.87.02,3.36,1.55,3.34,3.42-.01,1.1-.56,2.07-1.38,2.67Z"/><path class="cls-28" d="M253.3,214.23l-21.75-.23c-1.17-.01-2.14.93-2.15,2.1l-.03,2.65c.01-1.17.97-2.12,2.15-2.1l21.75.23c1.17.01,2.12.97,2.1,2.15l.03-2.65c.01-1.17-.93-2.14-2.1-2.15Z"/><path class="cls-6" d="M234.62,215.24l.05-4.83c.05-4.3,3.57-7.75,7.87-7.71h0c4.3.05,7.75,3.57,7.71,7.87l-.05,4.83"/><path class="cls-4" d="M234.67,210.42c.05-4.3,3.57-7.75,7.87-7.71h0"/><polygon class="cls-15" points="218.21 182.02 168.12 231.07 167.66 274.74 167.76 274.74 261.99 182.48 218.21 182.02"/><polygon class="cls-14" points="222.61 261.56 302.93 182.91 275.74 182.63 195.12 261.56 222.61 261.56"/><path class="cls-22" d="M417.56,172.16l-66.14-10.53c-3.78-.6-6.36-4.16-5.76-7.94l11.43-71.81,79.83,12.71-11.43,71.81c-.6,3.78-4.16,6.36-7.94,5.76Z"/><rect class="cls-20" x="357.39" y="78.12" width="80.83" height="10.19" transform="translate(18.03 -61.5) rotate(9.04)"/><rect class="cls-22" x="428.34" y="85.41" width="6.33" height="6.33" rx=".7" ry=".7" transform="translate(19.29 -66.73) rotate(9.04)"/><line class="cls-8" x1="433.18" y1="87.36" x2="429.83" y2="89.79"/><line class="cls-8" x1="432.72" y1="90.25" x2="430.29" y2="86.9"/><path class="cls-11" d="M398.6,124.47c-1.39-.22-2.46-1.21-2.85-2.47-1.35.64-2.79.91-4.23.68-1.44-.23-2.72-.93-3.8-1.96-.76,1.07-2.09,1.68-3.47,1.46-4.47-.71-8.67,2.34-9.38,6.81l-.74,4.63c-.25,1.58.82,3.06,2.4,3.31l24.83,3.95c1.58.25,3.06-.82,3.31-2.4l.74-4.63c.71-4.47-2.34-8.67-6.81-9.38Z"/><path class="cls-11" d="M392.1,119.11c4.42.7,9.06-5.42,9.9-10.67s-2.07-10.09-6.48-10.79c-4.42-.7-8.68,2.99-9.51,8.24-.84,5.26,1.68,12.52,6.1,13.22Z"/><rect class="cls-11" x="360.28" y="144.26" width="32.57" height="5.19" transform="translate(27.77 -57.37) rotate(9.04)"/><rect class="cls-11" x="358.78" y="154.59" width="55.53" height="5.19" transform="translate(29.51 -58.81) rotate(9.04)"/><path class="cls-20" d="M116.5,80.93c-2.27.93-3.67,3.25-3.43,5.69.53,5.38,1.92,10.93,4.24,16.39,7.68,18.01,34.28,24.7,44.07,26.58,2.24.43,4.5-.54,5.74-2.45,5.42-8.37,19.03-32.18,11.35-50.2-2.28-5.35-5.25-10.12-8.69-14.18-1.68-1.99-4.53-2.46-6.84-1.26-7.38,3.81-14.88,4.65-22.48,3.13-2.22-.45-4.49.43-5.78,2.29-4.23,6.08-10.26,10.77-18.18,14Z"/><path class="cls-23" d="M136.76,65.14c-.82.41-1.54,1.01-2.09,1.79-4.23,6.08-10.26,10.77-18.18,14-2.27.93-3.67,3.25-3.43,5.69.53,5.38,1.92,10.93,4.24,16.39,7.68,18.01,34.28,24.7,44.07,26.58.95.18,1.89.1,2.77-.18l-27.39-64.27Z"/><path class="cls-22" d="M139.01,69.51c.1-.04.27-.09.49-.04,7.94,1.59,15.65.83,22.91-2.26.93-.4,1.88-.84,2.8-1.32.02-.01.04-.02.07-.03.24-.1.58-.12.76.1,3.21,3.8,5.88,8.15,7.92,12.93,6.84,16.06-6.65,38.95-10.95,45.59-.07.11-.17.2-.29.25-.12.05-.25.07-.38.04-7.76-1.49-33.62-7.61-40.47-23.68-2.08-4.87-3.38-9.9-3.87-14.94-.03-.28.13-.54.39-.65.27-.11.54-.22.81-.34,8.33-3.55,14.91-8.73,19.55-15.41.07-.11.17-.18.29-.24M137.07,64.98c-.95.4-1.78,1.07-2.4,1.95-4.09,5.89-9.88,10.47-17.43,13.69-.25.11-.49.21-.74.31-.03.01-.05.02-.08.03-2.22.95-3.58,3.24-3.35,5.66.53,5.38,1.92,10.93,4.24,16.39,7.68,18.01,34.28,24.7,44.07,26.58,1.12.22,2.24.08,3.24-.35,1-.43,1.88-1.15,2.49-2.1,5.42-8.37,19.03-32.18,11.35-50.2-2.28-5.35-5.25-10.12-8.69-14.18-1.59-1.88-4.21-2.4-6.45-1.45-.13.06-.26.12-.39.19-.82.42-1.64.81-2.47,1.16-6.58,2.81-13.26,3.32-20.01,1.97-1.16-.23-2.34-.1-3.38.34h0Z"/><polyline class="cls-2" points="160.89 82.66 152.16 104.34 141.88 100.21"/><path class="cls-27" d="M371.64,331.49c.54-1.4,2.1-2.09,3.5-1.56l24.03,9.22-1.26,3.29-26.27-10.94Z"/><path class="cls-27" d="M408.34,342.69l-10.16-3.9c-.37-.14-.78.04-.92.41l-1.05,2.73c-.14.37.04.78.41.92l4,1.53c.8.31,1.15,1.21.84,2.01,0,0,0,.01,0,.02-1.2,3.13.41,6.65,3.57,7.79,3,1.08,6.45-.5,7.61-3.46,1.21-3.09-.36-6.54-3.46-7.73-.28-.11-.54-.26-.83-.32ZM404.77,347.68c.48-1.26,1.9-1.89,3.15-1.41s1.89,1.9,1.41,3.15c-.48,1.26-1.9,1.89-3.15,1.41s-1.89-1.9-1.41-3.15Z"/><path class="cls-11" d="M373.63,339.66c-1.5,0-2.71-1.21-2.71-2.71v-.09l28.45-.67v3.48h-25.74Z"/><path class="cls-11" d="M410.08,339.68c3.32,0,6.01-2.66,5.99-5.98-.02-3.18-2.68-5.89-5.86-5.96-3.36-.07-6.13,2.64-6.13,5.99v.02c0,.86-.64,1.57-1.5,1.57h-4.28c-.4,0-.72.32-.72.72v2.92c0,.4.32.72.72.72h10.88c.29.04.59,0,.89,0ZM410.08,331.3c1.35,0,2.44,1.1,2.44,2.44s-1.1,2.44-2.44,2.44-2.44-1.1-2.44-2.44,1.1-2.44,2.44-2.44Z"/><circle class="cls-10" cx="391.6" cy="338.09" r=".94"/><path class="cls-25" d="M298.22,128.4l-45.59-13.56c-1.68-.5-3.46.46-3.96,2.14l-7.92,26.61c-.5,1.68.46,3.46,2.14,3.96l4.79,1.43-2.06,6.91c-.27.92.64,1.76,1.53,1.4l12.1-4.86,29.22,8.69c1.68.5,3.46-.46,3.96-2.14l7.92-26.61c.5-1.68-.46-3.46-2.14-3.96Z"/><line class="cls-7" x1="271.15" y1="135.98" x2="269.75" y2="140.7"/><line class="cls-7" x1="268.76" y1="136.56" x2="272.14" y2="140.13"/><line class="cls-7" x1="268.06" y1="138.91" x2="272.84" y2="137.77"/><line class="cls-7" x1="260.34" y1="132.77" x2="258.94" y2="137.48"/><line class="cls-7" x1="257.95" y1="133.34" x2="261.33" y2="136.91"/><line class="cls-7" x1="257.25" y1="135.7" x2="262.03" y2="134.55"/><line class="cls-7" x1="282.79" y1="139.45" x2="281.39" y2="144.16"/><line class="cls-7" x1="280.4" y1="140.02" x2="283.78" y2="143.59"/><line class="cls-7" x1="279.7" y1="142.37" x2="284.48" y2="141.23"/><polygon class="cls-13" points="167.76 220.93 166.03 229.9 185.98 229.9 185.98 237.21 188.94 237.21 188.94 234.91 197.23 234.91 197.23 237.21 200.33 237.21 200.33 229.9 205.81 229.9 205.81 220.93 167.76 220.93"/><polygon class="cls-1" points="185.98 223.34 185.98 235.14 188.94 235.14 188.94 232.83 197.23 232.83 197.23 235.14 200.33 235.14 200.33 223.34 185.98 223.34"/><rect class="cls-26" x="149.64" y="218.85" width="56.16" height="8.98"/><rect class="cls-1" x="149.64" y="218.85" width="10.31" height="8.98"/><path class="cls-26" d="M145.97,242.56h-12.33c-3.93,0-7.12-3.2-7.12-7.12v-24.18c0-3.93,3.2-7.12,7.12-7.12h12.33c3.93,0,7.12,3.2,7.12,7.12v24.18c0,3.93-3.2,7.12-7.12,7.12ZM133.64,211.03c-.12,0-.22.1-.22.22v24.18c0,.12.1.22.22.22h12.33c.12,0,.22-.1.22-.22v-24.18c0-.12-.1-.22-.22-.22h-12.33Z"/><circle class="cls-9" cx="79.5" cy="170.63" r="31.14" transform="translate(-58.26 42.34) rotate(-22.06)"/><ellipse class="cls-9" cx="79.5" cy="170.63" rx="17.17" ry="31.14"/><line class="cls-9" x1="79.5" y1="139.49" x2="79.5" y2="201.77"/><line class="cls-9" x1="110.64" y1="170.63" x2="48.36" y2="170.63"/><line class="cls-9" x1="53.62" y1="153.31" x2="105.38" y2="153.31"/><line class="cls-9" x1="53.62" y1="187.38" x2="105.38" y2="187.38"/><rect class="cls-11" x="311.47" y="347.51" width="11.34" height="10.02" transform="translate(-38.53 38.91) rotate(-6.62)"/><rect class="cls-21" x="320.46" y="346.99" width="2.32" height="10.02" transform="translate(-38.44 39.43) rotate(-6.62)"/><rect class="cls-24" x="321.34" y="343.5" width="33.87" height="13.13" transform="translate(-38.1 41.34) rotate(-6.62)"/><rect class="cls-21" x="315.07" y="349.72" width="1.85" height="1.85" transform="translate(-38.31 38.76) rotate(-6.62)"/><rect class="cls-21" x="315.52" y="353.68" width="1.85" height="1.85" transform="translate(-38.77 38.84) rotate(-6.62)"/><path class="cls-24" d="M251.74,352.91c-1.84.5-3.49,1.35-4.92,2.44-4.89-6.77-13.64-10.15-22.17-7.81-9.67,2.66-15.82,11.77-15.09,21.41-5.8,2.26-9.07,8.59-7.39,14.73,1.8,6.56,8.58,10.42,15.14,8.61l42.07-11.55c7.69-2.11,12.21-10.05,10.09-17.74-2.11-7.69-10.05-12.21-17.74-10.09Z"/><path class="cls-11" d="M238.92,396.93l-2.89.79-5.02-18.26c-.27-.99-1.3-1.58-2.3-1.31l-6.69,1.84c-.99.27-1.58,1.3-1.31,2.3l5.02,18.26-2.89.79c-1.16.32-1.36,1.88-.31,2.48l10.24,5.83c.65.37,1.48.14,1.85-.51l5.83-10.24c.6-1.05-.37-2.29-1.53-1.97Z"/><path class="cls-11" d="M255.81,382.16l-2.89.79,5.02,18.26c.27.99-.31,2.02-1.31,2.3l-6.69,1.84c-.99.27-2.02-.31-2.3-1.31l-5.02-18.26-2.89.79c-1.16.32-2.13-.93-1.53-1.97l5.83-10.24c.37-.65,1.2-.88,1.84-.51l10.24,5.83c1.05.6.85,2.16-.31,2.48Z"/><path class="cls-11" d="M223.45,341.7c-1.29,0-2.34-1.05-2.34-2.34,0-9.31-7.57-16.88-16.88-16.88-1.29,0-2.34-1.05-2.34-2.34s1.05-2.34,2.34-2.34c11.89,0,21.57,9.68,21.57,21.57,0,1.29-1.05,2.34-2.34,2.34Z"/><path class="cls-11" d="M214.49,341.7c-1.29,0-2.34-1.05-2.34-2.34,0-4.37-3.56-7.93-7.93-7.93-1.29,0-2.34-1.05-2.34-2.34s1.05-2.34,2.34-2.34c6.96,0,12.62,5.66,12.62,12.62,0,1.29-1.05,2.34-2.34,2.34Z"/><path class="cls-11" d="M204.22,342.79c-1.9,0-3.44-1.54-3.44-3.44s1.54-3.44,3.44-3.44,3.44,1.54,3.44,3.44-1.54,3.44-3.44,3.44Z"/><line class="cls-9" x1="84.71" y1="289.98" x2="176.7" y2="289.98"/><line class="cls-9" x1="151.09" y1="256.01" x2="151.09" y2="315.48"/><path class="cls-19" d="M80.52,288.6c.76,0,1.38.62,1.38,1.38s-.62,1.38-1.38,1.38-1.38-.62-1.38-1.38.62-1.38,1.38-1.38M80.52,285.78c-2.31,0-4.19,1.88-4.19,4.19s1.88,4.19,4.19,4.19,4.19-1.88,4.19-4.19-1.88-4.19-4.19-4.19h0Z"/><path class="cls-19" d="M151.09,316.91c.76,0,1.38.62,1.38,1.38s-.62,1.38-1.38,1.38-1.38-.62-1.38-1.38.62-1.38,1.38-1.38M151.09,314.09c-2.31,0-4.19,1.88-4.19,4.19s1.88,4.19,4.19,4.19,4.19-1.88,4.19-4.19-1.88-4.19-4.19-4.19h0Z"/><path class="cls-19" d="M151.09,252.05c.76,0,1.38.62,1.38,1.38s-.62,1.38-1.38,1.38-1.38-.62-1.38-1.38.62-1.38,1.38-1.38M151.09,249.24c-2.31,0-4.19,1.88-4.19,4.19s1.88,4.19,4.19,4.19,4.19-1.88,4.19-4.19-1.88-4.19-4.19-4.19h0Z"/><path class="cls-19" d="M179.38,288.6c.76,0,1.38.62,1.38,1.38s-.62,1.38-1.38,1.38-1.38-.62-1.38-1.38.62-1.38,1.38-1.38M179.38,285.78c-2.31,0-4.19,1.88-4.19,4.19s1.88,4.19,4.19,4.19,4.19-1.88,4.19-4.19-1.88-4.19-4.19-4.19h0Z"/><line class="cls-9" x1="351.63" y1="227.5" x2="437" y2="227.5"/><line class="cls-9" x1="415.63" y1="209.43" x2="415.63" y2="267.8"/><line class="cls-9" x1="369" y1="227.56" x2="369" y2="242.64"/><path class="cls-19" d="M369,243.99c.76,0,1.38.62,1.38,1.38s-.62,1.38-1.38,1.38-1.38-.62-1.38-1.38.62-1.38,1.38-1.38M369,241.17c-2.31,0-4.19,1.88-4.19,4.19s1.88,4.19,4.19,4.19,4.19-1.88,4.19-4.19-1.88-4.19-4.19-4.19h0Z"/><path class="cls-19" d="M415.63,205.69c.76,0,1.38.62,1.38,1.38s-.62,1.38-1.38,1.38-1.38-.62-1.38-1.38.62-1.38,1.38-1.38M415.63,202.88c-2.31,0-4.19,1.88-4.19,4.19s1.88,4.19,4.19,4.19,4.19-1.88,4.19-4.19-1.88-4.19-4.19-4.19h0Z"/><path class="cls-19" d="M415.63,268.16c.76,0,1.38.62,1.38,1.38s-.62,1.38-1.38,1.38-1.38-.62-1.38-1.38.62-1.38,1.38-1.38M415.63,265.34c-2.31,0-4.19,1.88-4.19,4.19s1.88,4.19,4.19,4.19,4.19-1.88,4.19-4.19-1.88-4.19-4.19-4.19h0Z"/><path class="cls-19" d="M348.74,226.12c.76,0,1.38.62,1.38,1.38s-.62,1.38-1.38,1.38-1.38-.62-1.38-1.38.62-1.38,1.38-1.38M348.74,223.31c-2.31,0-4.19,1.88-4.19,4.19s1.88,4.19,4.19,4.19,4.19-1.88,4.19-4.19-1.88-4.19-4.19-4.19h0Z"/><path class="cls-19" d="M440.02,226.12c.76,0,1.38.62,1.38,1.38s-.62,1.38-1.38,1.38-1.38-.62-1.38-1.38.62-1.38,1.38-1.38M440.02,223.31c-2.31,0-4.19,1.88-4.19,4.19s1.88,4.19,4.19,4.19,4.19-1.88,4.19-4.19-1.88-4.19-4.19-4.19h0Z"/><line class="cls-9" x1="223.67" y1="99.06" x2="328.68" y2="99.06"/><line class="cls-9" x1="241.16" y1="67.39" x2="241.16" y2="99.06"/><line class="cls-9" x1="309.95" y1="99.06" x2="309.95" y2="133.38"/><path class="cls-19" d="M241.16,64.57c.76,0,1.38.62,1.38,1.38s-.62,1.38-1.38,1.38-1.38-.62-1.38-1.38.62-1.38,1.38-1.38M241.16,61.76c-2.31,0-4.19,1.88-4.19,4.19s1.88,4.19,4.19,4.19,4.19-1.88,4.19-4.19-1.88-4.19-4.19-4.19h0Z"/><path class="cls-19" d="M309.95,134.66c.76,0,1.38.62,1.38,1.38s-.62,1.38-1.38,1.38-1.38-.62-1.38-1.38.62-1.38,1.38-1.38M309.95,131.85c-2.31,0-4.19,1.88-4.19,4.19s1.88,4.19,4.19,4.19,4.19-1.88,4.19-4.19-1.88-4.19-4.19-4.19h0Z"/><path class="cls-19" d="M330.89,97.68c.76,0,1.38.62,1.38,1.38s-.62,1.38-1.38,1.38-1.38-.62-1.38-1.38.62-1.38,1.38-1.38M330.89,94.87c-2.31,0-4.19,1.88-4.19,4.19s1.88,4.19,4.19,4.19,4.19-1.88,4.19-4.19-1.88-4.19-4.19-4.19h0Z"/><path class="cls-19" d="M220.91,97.68c.76,0,1.38.62,1.38,1.38s-.62,1.38-1.38,1.38-1.38-.62-1.38-1.38.62-1.38,1.38-1.38M220.91,94.87c-2.31,0-4.19,1.88-4.19,4.19s1.88,4.19,4.19,4.19,4.19-1.88,4.19-4.19-1.88-4.19-4.19-4.19h0Z"/><path class="cls-11" d="M224.23,149.51s-8.99,11.33-20.08,11.33-20.08-11.33-20.08-11.33c0,0,8.99-11.33,20.08-11.33s20.08,11.33,20.08,11.33Z"/><circle class="cls-25" cx="204.14" cy="149.51" r="10.29"/><path class="cls-20" d="M207.83,149.51c0,2.04-1.65,3.69-3.69,3.69s-3.69-1.65-3.69-3.69,1.65-3.69,3.69-3.69,3.69,1.65,3.69,3.69Z"/><path class="cls-11" d="M203.82,146.61c0,1.21-.98,2.18-2.18,2.18s-2.18-.98-2.18-2.18.98-2.18,2.18-2.18,2.18.98,2.18,2.18Z"/><path class="cls-5" d="M139.39,382.78v-7.73c0-3.19,2.59-5.78,5.78-5.78h17.47c3.19,0,5.78,2.59,5.78,5.78v3.89"/><path class="cls-20" d="M144.06,382.45v-5.04h-9.35v5.04c-6.22,1.98-10.73,7.8-10.73,14.68,0,8.51,6.9,15.41,15.41,15.41s15.41-6.9,15.41-15.41c0-6.88-4.51-12.7-10.73-14.68Z"/><line class="cls-3" x1="168.41" y1="389.62" x2="168.41" y2="394.65"/><line class="cls-3" x1="160.73" y1="381.33" x2="165.08" y2="383.84"/><line class="cls-3" x1="171.75" y1="387.7" x2="176.1" y2="390.21"/><line class="cls-3" x1="160.73" y1="390.21" x2="165.08" y2="387.7"/><line class="cls-3" x1="171.75" y1="383.84" x2="176.1" y2="381.33"/><path class="cls-23" d="M131.91,383.84c-.11,0-.22.01-.33.02-4,2.36-6.83,6.47-7.45,11.28.69,4.43,3.91,7.78,7.79,7.78,4.38,0,7.93-4.27,7.93-9.54s-3.55-9.54-7.93-9.54Z"/><path class="cls-11" d="M147.2,145.43l.49.9c1.19,2.18,2.99,3.98,5.17,5.17l.9.49c.87.47.87,1.72,0,2.19l-.9.49c-2.18,1.19-3.98,2.99-5.17,5.17l-.49.9c-.47.87-1.72.87-2.19,0l-.49-.9c-1.19-2.18-2.99-3.98-5.17-5.17l-.9-.49c-.87-.47-.87-1.72,0-2.19l.9-.49c2.18-1.19,3.98-2.99,5.17-5.17l.49-.9c.47-.87,1.72-.87,2.19,0Z"/><path class="cls-11" d="M160.84,160.71l.29.53c.71,1.3,1.78,2.37,3.08,3.08l.53.29c.52.28.52,1.02,0,1.31l-.53.29c-1.3.71-2.37,1.78-3.08,3.08l-.29.53c-.28.52-1.02.52-1.31,0l-.29-.53c-.71-1.3-1.78-2.37-3.08-3.08l-.53-.29c-.52-.28-.52-1.02,0-1.31l.53-.29c1.3-.71,2.37-1.78,3.08-3.08l.29-.53c.28-.52,1.02-.52,1.31,0Z"/><path class="cls-11" d="M144.49,177.94l.17.32c.42.77,1.06,1.41,1.83,1.83l.32.17c.31.17.31.61,0,.78l-.32.17c-.77.42-1.41,1.06-1.83,1.83l-.17.32c-.17.31-.61.31-.78,0l-.17-.32c-.42-.77-1.06-1.41-1.83-1.83l-.32-.17c-.31-.17-.31-.61,0-.78l.32-.17c.77-.42,1.41-1.06,1.83-1.83l.17-.32c.17-.31.61-.31.78,0Z"/><path class="cls-11" d="M204.41,57.35l.39.72c.96,1.75,2.4,3.19,4.14,4.14l.72.39c.69.38.69,1.38,0,1.76l-.72.39c-1.75.96-3.19,2.4-4.14,4.14l-.39.72c-.38.69-1.38.69-1.76,0l-.39-.72c-.96-1.75-2.4-3.19-4.14-4.14l-.72-.39c-.69-.38-.69-1.38,0-1.76l.72-.39c1.75-.96,3.19-2.4,4.14-4.14l.39-.72c.38-.69,1.38-.69,1.76,0Z"/><path class="cls-11" d="M288.08,300.56l.39.72c.96,1.75,2.4,3.19,4.14,4.14l.72.39c.69.38.69,1.38,0,1.76l-.72.39c-1.75.96-3.19,2.4-4.14,4.14l-.39.72c-.38.69-1.38.69-1.76,0l-.39-.72c-.96-1.75-2.4-3.19-4.14-4.14l-.72-.39c-.69-.38-.69-1.38,0-1.76l.72-.39c1.75-.96,3.19-2.4,4.14-4.14l.39-.72c.38-.69,1.38-.69,1.76,0Z"/><path class="cls-11" d="M305.38,311.94l.23.43c.57,1.04,1.43,1.9,2.47,2.47l.43.23c.41.23.41.82,0,1.05l-.43.23c-1.04.57-1.9,1.43-2.47,2.47l-.23.43c-.23.41-.82.41-1.05,0l-.23-.43c-.57-1.04-1.43-1.9-2.47-2.47l-.43-.23c-.41-.23-.41-.82,0-1.05l.43-.23c1.04-.57,1.9-1.43,2.47-2.47l.23-.43c.23-.41.82-.41,1.05,0Z"/><path class="cls-11" d="M283.28,324.23l.23.43c.57,1.04,1.43,1.9,2.47,2.47l.43.23c.41.23.41.82,0,1.05l-.43.23c-1.04.57-1.9,1.43-2.47,2.47l-.23.43c-.23.41-.82.41-1.05,0l-.23-.43c-.57-1.04-1.43-1.9-2.47-2.47l-.43-.23c-.41-.23-.41-.82,0-1.05l.43-.23c1.04-.57,1.9-1.43,2.47-2.47l.23-.43c.23-.41.82-.41,1.05,0Z"/><path class="cls-11" d="M214.74,74.02l.23.43c.57,1.04,1.43,1.9,2.47,2.47l.43.23c.41.23.41.82,0,1.05l-.43.23c-1.04.57-1.9,1.43-2.47,2.47l-.23.43c-.23.41-.82.41-1.05,0l-.23-.43c-.57-1.04-1.43-1.9-2.47-2.47l-.43-.23c-.41-.23-.41-.82,0-1.05l.43-.23c1.04-.57,1.9-1.43,2.47-2.47l.23-.43c.23-.41.82-.41,1.05,0Z"/><path class="cls-11" d="M204.06,91.62l.23.43c.57,1.04,1.43,1.9,2.47,2.47l.43.23c.41.23.41.82,0,1.05l-.43.23c-1.04.57-1.9,1.43-2.47,2.47l-.23.43c-.23.41-.82.41-1.05,0l-.23-.43c-.57-1.04-1.43-1.9-2.47-2.47l-.43-.23c-.41-.23-.41-.82,0-1.05l.43-.23c1.04-.57,1.9-1.43,2.47-2.47l.23-.43c.23-.41.82-.41,1.05,0Z"/><path class="cls-11" d="M331.01,157.91l.29.53c.71,1.3,1.78,2.37,3.08,3.08l.53.29c.52.28.52,1.02,0,1.31l-.53.29c-1.3.71-2.37,1.78-3.08,3.08l-.29.53c-.28.52-1.02.52-1.31,0l-.29-.53c-.71-1.3-1.78-2.37-3.08-3.08l-.53-.29c-.52-.28-.52-1.02,0-1.31l.53-.29c1.3-.71,2.37-1.78,3.08-3.08l.29-.53c.28-.52,1.02-.52,1.31,0Z"/><path class="cls-11" d="M314.66,175.15l.17.32c.42.77,1.06,1.41,1.83,1.83l.32.17c.31.17.31.61,0,.78l-.32.17c-.77.42-1.41,1.06-1.83,1.83l-.17.32c-.17.31-.61.31-.78,0l-.17-.32c-.42-.77-1.06-1.41-1.83-1.83l-.32-.17c-.31-.17-.31-.61,0-.78l.32-.17c.77-.42,1.41-1.06,1.83-1.83l.17-.32c.17-.31.61-.31.78,0Z"/></g></g></svg>